<mxfile host="65bd71144e">
    <diagram id="kfqbYSQvsbw34wrSjgwR" name="Page-1">
        <mxGraphModel dx="1121" dy="787" grid="1" gridSize="10" guides="1" tooltips="1" connect="1" arrows="1" fold="1" page="1" pageScale="1" pageWidth="850" pageHeight="1100" math="0" shadow="0">
            <root>
                <mxCell id="0"/>
                <mxCell id="1" parent="0"/>
                <mxCell id="108" value="" style="endArrow=none;html=1;fontColor=#0F0F0F;rounded=0;" edge="1" parent="1">
                    <mxGeometry width="50" height="50" relative="1" as="geometry">
                        <mxPoint x="848" y="340" as="sourcePoint"/>
                        <mxPoint x="848" y="400" as="targetPoint"/>
                    </mxGeometry>
                </mxCell>
                <mxCell id="106" value="" style="endArrow=none;html=1;fontColor=#0F0F0F;rounded=0;" parent="1" edge="1">
                    <mxGeometry width="50" height="50" relative="1" as="geometry">
                        <mxPoint x="785" y="400" as="sourcePoint"/>
                        <mxPoint x="785" y="460" as="targetPoint"/>
                    </mxGeometry>
                </mxCell>
                <UserObject label="&lt;font style=&quot;font-size: 11px;&quot;&gt;NEXT: Prepare for submission&lt;/font&gt;" link="../../../submit/#placeholder" id="69">
                    <mxCell style="rounded=0;whiteSpace=wrap;html=1;strokeColor=none;" parent="1" vertex="1">
                        <mxGeometry x="1034" y="360" width="80" height="40" as="geometry"/>
                    </mxCell>
                </UserObject>
                <mxCell id="2" value="" style="endArrow=block;html=1;rounded=0;endFill=1;startArrow=none;" parent="1" edge="1">
                    <mxGeometry width="50" height="50" relative="1" as="geometry">
                        <mxPoint x="40" y="400" as="sourcePoint"/>
                        <mxPoint x="1090" y="400" as="targetPoint"/>
                    </mxGeometry>
                </mxCell>
                <mxCell id="5" value="Finish Preparing Data Package Locally" style="rounded=0;whiteSpace=wrap;html=1;fillColor=#532565;fontColor=#F0F0F0;fontStyle=1;glass=0;fontSize=13;strokeColor=#532565;" parent="1" vertex="1">
                    <mxGeometry x="920" y="376" width="110" height="50" as="geometry"/>
                </mxCell>
                <UserObject label="List results shared&lt;br&gt;List contributing experiments" link="#make-a-list-of-shared-results-and-contributing-experiments" id="10">
                    <mxCell style="rounded=0;whiteSpace=wrap;html=1;fillColor=#982568;fontColor=#0F0F0F;fontStyle=1;opacity=50;" parent="1" vertex="1">
                        <mxGeometry x="648" y="290" width="130" height="50" as="geometry"/>
                    </mxCell>
                </UserObject>
                <mxCell id="24" value="" style="endArrow=none;html=1;fontColor=#0F0F0F;rounded=0;" parent="1" edge="1">
                    <mxGeometry width="50" height="50" relative="1" as="geometry">
                        <mxPoint x="160" y="460" as="sourcePoint"/>
                        <mxPoint x="160" y="400" as="targetPoint"/>
                    </mxGeometry>
                </mxCell>
                <mxCell id="25" value="" style="endArrow=none;html=1;fontColor=#0F0F0F;rounded=0;" parent="1" edge="1">
                    <mxGeometry width="50" height="50" relative="1" as="geometry">
                        <mxPoint x="199.5" y="400" as="sourcePoint"/>
                        <mxPoint x="199.5" y="340" as="targetPoint"/>
                    </mxGeometry>
                </mxCell>
                <mxCell id="26" value="" style="endArrow=none;html=1;fontColor=#0F0F0F;rounded=0;" parent="1" edge="1">
                    <mxGeometry width="50" height="50" relative="1" as="geometry">
                        <mxPoint x="300" y="460" as="sourcePoint"/>
                        <mxPoint x="300" y="400" as="targetPoint"/>
                    </mxGeometry>
                </mxCell>
                <mxCell id="28" value="" style="endArrow=none;html=1;fontColor=#0F0F0F;rounded=0;" parent="1" edge="1">
                    <mxGeometry width="50" height="50" relative="1" as="geometry">
                        <mxPoint x="711" y="340" as="sourcePoint"/>
                        <mxPoint x="711" y="400" as="targetPoint"/>
                    </mxGeometry>
                </mxCell>
                <mxCell id="34" value="" style="endArrow=none;html=1;fontColor=#0F0F0F;rounded=0;" parent="1" edge="1">
                    <mxGeometry width="50" height="50" relative="1" as="geometry">
                        <mxPoint x="319.5" y="340" as="sourcePoint"/>
                        <mxPoint x="319.5" y="400" as="targetPoint"/>
                    </mxGeometry>
                </mxCell>
                <UserObject label="&lt;b&gt;Data Package&lt;/b&gt;" link="#initialize-your-data-package" id="45">
                    <mxCell style="swimlane;fontStyle=0;childLayout=stackLayout;horizontal=1;startSize=50;horizontalStack=0;resizeParent=1;resizeParentMax=0;resizeLast=0;collapsible=1;marginBottom=0;whiteSpace=wrap;html=1;rounded=0;shadow=0;glass=0;fillColor=#982568;gradientColor=none;gradientDirection=radial;opacity=50;movable=1;resizable=1;rotatable=1;deletable=1;editable=1;connectable=1;noLabel=0;expand=1;flipV=0;" parent="1" vertex="1" collapsed="1">
                        <mxGeometry x="110" y="460" width="100" height="50" as="geometry">
                            <mxRectangle x="200" y="460" width="120" height="110" as="alternateBounds"/>
                        </mxGeometry>
                    </mxCell>
                </UserObject>
                <mxCell id="46" value="Initialize data package" style="text;strokeColor=default;fillColor=#FFFFFF;align=center;verticalAlign=middle;spacingLeft=4;spacingRight=4;overflow=hidden;points=[[0,0.5],[1,0.5]];portConstraint=eastwest;rotatable=0;whiteSpace=wrap;html=1;rounded=0;shadow=0;glass=0;" parent="45" vertex="1">
                    <mxGeometry y="50" width="120" height="60" as="geometry"/>
                </mxCell>
                <UserObject label="&lt;b&gt;Results Tracker&lt;/b&gt;" link="#start-your-results-tracker-one-per-manuscript" id="48">
                    <mxCell style="swimlane;fontStyle=0;childLayout=stackLayout;horizontal=1;startSize=50;horizontalStack=0;resizeParent=1;resizeParentMax=0;resizeLast=0;collapsible=1;marginBottom=0;whiteSpace=wrap;html=1;rounded=0;shadow=0;glass=0;fillColor=#982568;gradientColor=none;gradientDirection=radial;opacity=50;" parent="1" vertex="1" collapsed="1">
                        <mxGeometry x="740" y="460" width="100" height="50" as="geometry">
                            <mxRectangle x="740" y="460" width="120" height="140" as="alternateBounds"/>
                        </mxGeometry>
                    </mxCell>
                </UserObject>
                <mxCell id="49" value="For each shared result, document the files the result depends upon (e.g., processed data, code, etc.)" style="text;strokeColor=default;fillColor=#FFFFFF;align=left;verticalAlign=middle;spacingLeft=4;spacingRight=4;overflow=hidden;points=[[0,0.5],[1,0.5]];portConstraint=eastwest;rotatable=0;whiteSpace=wrap;html=1;rounded=0;shadow=0;glass=0;" parent="48" vertex="1">
                    <mxGeometry y="50" width="120" height="90" as="geometry"/>
                </mxCell>
                <UserObject label="&lt;b&gt;Data Dictionary&lt;/b&gt;" link="#start-your-data-dictionaryies" id="54">
                    <mxCell style="swimlane;fontStyle=0;childLayout=stackLayout;horizontal=1;startSize=50;horizontalStack=0;resizeParent=1;resizeParentMax=0;resizeLast=0;collapsible=1;marginBottom=0;whiteSpace=wrap;html=1;rounded=0;shadow=0;glass=0;fillColor=#982568;gradientColor=none;gradientDirection=radial;opacity=50;arcSize=15;swimlaneFillColor=none;" parent="1" vertex="1" collapsed="1">
                        <mxGeometry x="240" y="460" width="100" height="50" as="geometry">
                            <mxRectangle x="590" y="290" width="120" height="130" as="alternateBounds"/>
                        </mxGeometry>
                    </mxCell>
                </UserObject>
                <mxCell id="55" value="If any shared result depends upon a tabular data file, document the variables in that file." style="text;strokeColor=default;fillColor=#FFFFFF;align=left;verticalAlign=middle;spacingLeft=4;spacingRight=4;overflow=hidden;points=[[0,0.5],[1,0.5]];portConstraint=eastwest;rotatable=0;whiteSpace=wrap;html=1;rounded=0;shadow=0;glass=0;" parent="54" vertex="1">
                    <mxGeometry y="50" width="120" height="80" as="geometry"/>
                </mxCell>
                <mxCell id="58" value="" style="endArrow=none;html=1;fontColor=#0F0F0F;rounded=0;" parent="1" edge="1">
                    <mxGeometry width="50" height="50" relative="1" as="geometry">
                        <mxPoint x="78" y="340" as="sourcePoint"/>
                        <mxPoint x="78" y="400" as="targetPoint"/>
                    </mxGeometry>
                </mxCell>
                <UserObject label="Right Away" link="#what-to-do-right-away" id="68">
                    <mxCell style="shape=singleArrow;whiteSpace=wrap;html=1;arrowWidth=0.6;arrowSize=0.08;fillColor=#532565;strokeColor=#532565;fontSize=13;labelBorderColor=none;fontColor=#FFFFFF;fontStyle=1" parent="1" vertex="1">
                        <mxGeometry x="30" y="380" width="360" height="40" as="geometry"/>
                    </mxCell>
                </UserObject>
                <mxCell id="90" value="" style="endArrow=none;html=1;fontColor=#0F0F0F;rounded=0;" parent="1" edge="1">
                    <mxGeometry width="50" height="50" relative="1" as="geometry">
                        <mxPoint x="528.5" y="340" as="sourcePoint"/>
                        <mxPoint x="528.5" y="400" as="targetPoint"/>
                    </mxGeometry>
                </mxCell>
                <UserObject label="Create Data Dictionaries for new tabular files" link="#new-tabular-data-files" id="95">
                    <mxCell style="rounded=0;whiteSpace=wrap;html=1;fillColor=#982568;fontColor=#0F0F0F;fontStyle=1;opacity=50;" parent="1" vertex="1">
                        <mxGeometry x="469" y="290" width="120" height="50" as="geometry"/>
                    </mxCell>
                </UserObject>
                <UserObject label="Add new study experiments to Experiment Tracker" link="#new-study-experimentsactivities" id="96">
                    <mxCell style="rounded=0;whiteSpace=wrap;html=1;fillColor=#982568;fontColor=#0F0F0F;fontStyle=1;opacity=50;" parent="1" vertex="1">
                        <mxGeometry x="400" y="460" width="120" height="50" as="geometry"/>
                    </mxCell>
                </UserObject>
                <mxCell id="98" value="" style="endArrow=none;html=1;fontColor=#0F0F0F;rounded=0;" parent="1" edge="1">
                    <mxGeometry width="50" height="50" relative="1" as="geometry">
                        <mxPoint x="461" y="400" as="sourcePoint"/>
                        <mxPoint x="461" y="460" as="targetPoint"/>
                    </mxGeometry>
                </mxCell>
                <UserObject label="Add new study resources to Resource Tracker" link="#new-study-filesresources" id="99">
                    <mxCell style="rounded=0;whiteSpace=wrap;html=1;fillColor=#982568;fontColor=#0F0F0F;fontStyle=1;opacity=50;" parent="1" vertex="1">
                        <mxGeometry x="551" y="460" width="120" height="50" as="geometry"/>
                    </mxCell>
                </UserObject>
                <mxCell id="100" value="" style="endArrow=none;html=1;fontColor=#0F0F0F;rounded=0;" parent="1" edge="1">
                    <mxGeometry width="50" height="50" relative="1" as="geometry">
                        <mxPoint x="612" y="400" as="sourcePoint"/>
                        <mxPoint x="612" y="460" as="targetPoint"/>
                    </mxGeometry>
                </mxCell>
                <UserObject label="&lt;font color=&quot;#ffffff&quot; style=&quot;font-size: 13px;&quot;&gt;&lt;b style=&quot;font-size: 13px;&quot;&gt;Throughout Your Study&lt;/b&gt;&lt;/font&gt;" link="#what-to-do-continuously-as-you-go" id="103">
                    <mxCell style="shape=singleArrow;whiteSpace=wrap;html=1;arrowWidth=0.6;arrowSize=0.08;fillColor=#532565;strokeColor=#532565;fontSize=13;labelBorderColor=none;" parent="1" vertex="1">
                        <mxGeometry x="418" y="380" width="230" height="40" as="geometry"/>
                    </mxCell>
                </UserObject>
                <UserObject label="&lt;font color=&quot;#ffffff&quot; style=&quot;font-size: 13px;&quot;&gt;&lt;b style=&quot;font-size: 13px;&quot;&gt;After Manuscript Finalized&lt;/b&gt;&lt;/font&gt;" link="#what-to-do-when-your-manuscript-is-finalized" id="105">
                    <mxCell style="shape=singleArrow;whiteSpace=wrap;html=1;arrowWidth=0.6;arrowSize=0.08;fillColor=#532565;strokeColor=#532565;fontSize=13;labelBorderColor=none;" parent="1" vertex="1">
                        <mxGeometry x="668" y="380" width="232" height="40" as="geometry"/>
                    </mxCell>
                </UserObject>
                <UserObject label="&lt;b&gt;Add items to Resource Tracker&lt;/b&gt;" link="#add-items-to-your-resource-tracker" id="50">
                    <mxCell style="swimlane;fontStyle=0;childLayout=stackLayout;horizontal=1;startSize=50;horizontalStack=0;resizeParent=1;resizeParentMax=0;resizeLast=0;collapsible=1;marginBottom=0;whiteSpace=wrap;html=1;rounded=0;shadow=0;glass=0;fillColor=#982568;gradientColor=none;gradientDirection=radial;opacity=50;swimlaneLine=1;" parent="1" vertex="1" collapsed="1">
                        <mxGeometry x="800" y="290" width="100" height="50" as="geometry">
                            <mxRectangle x="800" y="290" width="190" height="230" as="alternateBounds"/>
                        </mxGeometry>
                    </mxCell>
                </UserObject>
                <mxCell id="51" value="&lt;b&gt;Step 1&lt;/b&gt;: Add your manuscript and results tracker, documenting their location and association (e.g., your manuscript depends on your results tracker." style="text;strokeColor=default;fillColor=#FFFFFF;align=left;verticalAlign=middle;spacingLeft=4;spacingRight=4;overflow=hidden;points=[[0,0.5],[1,0.5]];portConstraint=eastwest;rotatable=0;whiteSpace=wrap;html=1;rounded=0;shadow=0;glass=0;fillStyle=solid;" parent="50" vertex="1">
                    <mxGeometry y="50" width="190" height="90" as="geometry"/>
                </mxCell>
                <mxCell id="53" value="&lt;b&gt;Step 2&lt;/b&gt;: Confirm that each shared result is listed as a study file in your Resource Tracker and associated files/dependencies for each study file are listed in your Resource Tracker" style="text;strokeColor=default;fillColor=#FFFFFF;align=left;verticalAlign=middle;spacingLeft=4;spacingRight=4;overflow=hidden;points=[[0,0.5],[1,0.5]];portConstraint=eastwest;rotatable=0;whiteSpace=wrap;html=1;rounded=0;shadow=0;glass=0;labelBackgroundColor=none;fillStyle=solid;" parent="50" vertex="1">
                    <mxGeometry y="140" width="190" height="90" as="geometry"/>
                </mxCell>
                <UserObject label="&lt;b&gt;Experiment Tracker&lt;/b&gt;" link="#start-your-experiment-tracker" id="41">
                    <mxCell style="swimlane;fontStyle=0;childLayout=stackLayout;horizontal=1;startSize=50;horizontalStack=0;resizeParent=1;resizeParentMax=0;resizeLast=0;collapsible=1;marginBottom=0;whiteSpace=wrap;html=1;rounded=0;shadow=0;glass=0;fillColor=#982568;gradientColor=none;gradientDirection=radial;opacity=50;" parent="1" vertex="1" collapsed="1">
                        <mxGeometry x="150" y="290" width="100" height="50" as="geometry">
                            <mxRectangle x="150" y="290" width="120" height="110" as="alternateBounds"/>
                        </mxGeometry>
                    </mxCell>
                </UserObject>
                <mxCell id="42" value="Document contributing experiments" style="text;strokeColor=default;fillColor=#FFFFFF;align=center;verticalAlign=middle;spacingLeft=4;spacingRight=4;overflow=hidden;points=[[0,0.5],[1,0.5]];portConstraint=eastwest;rotatable=0;whiteSpace=wrap;html=1;rounded=0;shadow=0;glass=0;" parent="41" vertex="1">
                    <mxGeometry y="50" width="120" height="60" as="geometry"/>
                </mxCell>
                <UserObject label="&lt;b&gt;Set Yourself Up For Success&lt;/b&gt;" link="#set-yourself-up-for-success" id="109">
                    <mxCell style="swimlane;fontStyle=0;childLayout=stackLayout;horizontal=1;startSize=50;horizontalStack=0;resizeParent=1;resizeParentMax=0;resizeLast=0;collapsible=1;marginBottom=0;whiteSpace=wrap;html=1;rounded=0;shadow=0;glass=0;fillColor=#982568;gradientColor=none;gradientDirection=radial;opacity=50;" vertex="1" collapsed="1" parent="1">
                        <mxGeometry x="30" y="290" width="100" height="50" as="geometry">
                            <mxRectangle x="30" y="290" width="150" height="220" as="alternateBounds"/>
                        </mxGeometry>
                    </mxCell>
                </UserObject>
                <mxCell id="110" value="&lt;span style=&quot;&quot;&gt;1. Review all files produced by your study&lt;/span&gt;" style="text;strokeColor=default;fillColor=#FFFFFF;align=left;verticalAlign=middle;spacingLeft=4;spacingRight=4;overflow=hidden;points=[[0,0.5],[1,0.5]];portConstraint=eastwest;rotatable=0;whiteSpace=wrap;html=1;rounded=0;shadow=0;glass=0;" vertex="1" parent="109">
                    <mxGeometry y="50" width="150" height="40" as="geometry"/>
                </mxCell>
                <mxCell id="111" value="2. Apply file organization and naming conventions" style="text;strokeColor=default;fillColor=#FFFFFF;align=left;verticalAlign=middle;spacingLeft=4;spacingRight=4;overflow=hidden;points=[[0,0.5],[1,0.5]];portConstraint=eastwest;rotatable=0;whiteSpace=wrap;html=1;rounded=0;shadow=0;glass=0;" vertex="1" parent="109">
                    <mxGeometry y="90" width="150" height="40" as="geometry"/>
                </mxCell>
                <mxCell id="112" value="3. Organize study files into a single folder/ directory" style="text;strokeColor=default;fillColor=#FFFFFF;align=left;verticalAlign=middle;spacingLeft=4;spacingRight=4;overflow=hidden;points=[[0,0.5],[1,0.5]];portConstraint=eastwest;rotatable=0;whiteSpace=wrap;html=1;rounded=0;shadow=0;glass=0;" vertex="1" parent="109">
                    <mxGeometry y="130" width="150" height="50" as="geometry"/>
                </mxCell>
                <mxCell id="113" value="4. Ensure study files and folders are accessible" style="text;strokeColor=default;fillColor=#FFFFFF;align=left;verticalAlign=middle;spacingLeft=4;spacingRight=4;overflow=hidden;points=[[0,0.5],[1,0.5]];portConstraint=eastwest;rotatable=0;whiteSpace=wrap;html=1;rounded=0;shadow=0;glass=0;" vertex="1" parent="109">
                    <mxGeometry y="180" width="150" height="40" as="geometry"/>
                </mxCell>
                <UserObject label="&lt;b&gt;Resource Tracker&lt;/b&gt;" link="#start-your-resource-tracker" id="114">
                    <mxCell style="swimlane;fontStyle=0;childLayout=stackLayout;horizontal=1;startSize=50;horizontalStack=0;resizeParent=1;resizeParentMax=0;resizeLast=0;collapsible=1;marginBottom=0;whiteSpace=wrap;html=1;rounded=0;shadow=0;glass=0;fillColor=#982568;gradientColor=none;gradientDirection=radial;opacity=50;" vertex="1" collapsed="1" parent="1">
                        <mxGeometry x="270" y="290" width="100" height="50" as="geometry">
                            <mxRectangle x="270" y="290" width="120" height="110" as="alternateBounds"/>
                        </mxGeometry>
                    </mxCell>
                </UserObject>
                <mxCell id="115" value="Add all study files already produced by your study as resources" style="text;strokeColor=default;fillColor=#FFFFFF;align=center;verticalAlign=middle;spacingLeft=4;spacingRight=4;overflow=hidden;points=[[0,0.5],[1,0.5]];portConstraint=eastwest;rotatable=0;whiteSpace=wrap;html=1;rounded=0;shadow=0;glass=0;" vertex="1" parent="114">
                    <mxGeometry y="50" width="120" height="60" as="geometry"/>
                </mxCell>
            </root>
        </mxGraphModel>
    </diagram>
</mxfile>